<mxfile host="Electron" modified="2024-01-03T22:16:37.799Z" agent="Mozilla/5.0 (Windows NT 10.0; Win64; x64) AppleWebKit/537.36 (KHTML, like Gecko) draw.io/22.1.16 Chrome/120.0.6099.109 Electron/28.1.0 Safari/537.36" etag="UGi3K-TxvC7eZPBJi22y" version="22.1.16" type="device">
  <diagram name="Seite-1" id="csRX2uKrC2PqM4yyIJgf">
    <mxGraphModel dx="675" dy="556" grid="1" gridSize="10" guides="1" tooltips="1" connect="1" arrows="1" fold="1" page="1" pageScale="1" pageWidth="827" pageHeight="1169" math="0" shadow="0">
      <root>
        <mxCell id="0" />
        <mxCell id="1" parent="0" />
        <mxCell id="PMdigUw3r0YSFIWqQ5Iu-1" value="Chemical&lt;br&gt;Equation" style="rounded=1;whiteSpace=wrap;html=1;shadow=1;" vertex="1" parent="1">
          <mxGeometry x="280" y="120" width="120" height="40" as="geometry" />
        </mxCell>
        <mxCell id="PMdigUw3r0YSFIWqQ5Iu-2" value="Molecule&lt;br&gt;e.g. 2CH&lt;sub&gt;3&lt;/sub&gt;OH" style="rounded=1;whiteSpace=wrap;html=1;shadow=1;" vertex="1" parent="1">
          <mxGeometry x="280" y="240" width="120" height="40" as="geometry" />
        </mxCell>
        <mxCell id="PMdigUw3r0YSFIWqQ5Iu-3" value="Molecular Part" style="rounded=1;whiteSpace=wrap;html=1;shadow=1;dashed=1;dashPattern=1 1;" vertex="1" parent="1">
          <mxGeometry x="280" y="320" width="120" height="40" as="geometry" />
        </mxCell>
        <mxCell id="PMdigUw3r0YSFIWqQ5Iu-4" value="Element&lt;br&gt;e.g. H&lt;sub&gt;2&lt;/sub&gt;" style="rounded=1;whiteSpace=wrap;html=1;shadow=1;" vertex="1" parent="1">
          <mxGeometry x="220" y="400" width="110" height="40" as="geometry" />
        </mxCell>
        <mxCell id="PMdigUw3r0YSFIWqQ5Iu-5" value="Group&lt;br&gt;e.g. (OH)&lt;sub&gt;2&lt;/sub&gt;" style="rounded=1;whiteSpace=wrap;html=1;shadow=1;" vertex="1" parent="1">
          <mxGeometry x="350" y="400" width="110" height="40" as="geometry" />
        </mxCell>
        <mxCell id="PMdigUw3r0YSFIWqQ5Iu-8" value="consists of" style="endArrow=classic;html=1;rounded=1;exitX=0.5;exitY=1;exitDx=0;exitDy=0;entryX=0.5;entryY=0;entryDx=0;entryDy=0;" edge="1" parent="1" source="PMdigUw3r0YSFIWqQ5Iu-2" target="PMdigUw3r0YSFIWqQ5Iu-3">
          <mxGeometry width="50" height="50" relative="1" as="geometry">
            <mxPoint x="380" y="310" as="sourcePoint" />
            <mxPoint x="430" y="260" as="targetPoint" />
          </mxGeometry>
        </mxCell>
        <mxCell id="PMdigUw3r0YSFIWqQ5Iu-10" value="is a" style="endArrow=none;html=1;rounded=1;exitX=0.169;exitY=1.05;exitDx=0;exitDy=0;dashed=1;dashPattern=1 1;exitPerimeter=0;entryX=0.733;entryY=-0.008;entryDx=0;entryDy=0;entryPerimeter=0;" edge="1" parent="1" source="PMdigUw3r0YSFIWqQ5Iu-3" target="PMdigUw3r0YSFIWqQ5Iu-4">
          <mxGeometry width="50" height="50" relative="1" as="geometry">
            <mxPoint x="380" y="310" as="sourcePoint" />
            <mxPoint x="310" y="400" as="targetPoint" />
          </mxGeometry>
        </mxCell>
        <mxCell id="PMdigUw3r0YSFIWqQ5Iu-11" value="is a" style="endArrow=none;html=1;rounded=1;dashed=1;dashPattern=1 1;" edge="1" parent="1">
          <mxGeometry width="50" height="50" relative="1" as="geometry">
            <mxPoint x="380" y="360" as="sourcePoint" />
            <mxPoint x="380" y="400" as="targetPoint" />
          </mxGeometry>
        </mxCell>
        <mxCell id="PMdigUw3r0YSFIWqQ5Iu-12" value="consists of" style="endArrow=classic;html=1;rounded=1;exitX=0.75;exitY=0;exitDx=0;exitDy=0;entryX=0.991;entryY=0.423;entryDx=0;entryDy=0;entryPerimeter=0;" edge="1" parent="1" source="PMdigUw3r0YSFIWqQ5Iu-5" target="PMdigUw3r0YSFIWqQ5Iu-3">
          <mxGeometry x="-0.5884" y="3" width="50" height="50" relative="1" as="geometry">
            <mxPoint x="380" y="310" as="sourcePoint" />
            <mxPoint x="430" y="260" as="targetPoint" />
            <Array as="points">
              <mxPoint x="433" y="337" />
            </Array>
            <mxPoint as="offset" />
          </mxGeometry>
        </mxCell>
        <mxCell id="PMdigUw3r0YSFIWqQ5Iu-24" value="LHS" style="rounded=1;whiteSpace=wrap;html=1;shadow=1;" vertex="1" parent="1">
          <mxGeometry x="220" y="180" width="70" height="40" as="geometry" />
        </mxCell>
        <mxCell id="PMdigUw3r0YSFIWqQ5Iu-25" value="RHS" style="rounded=1;whiteSpace=wrap;html=1;shadow=1;" vertex="1" parent="1">
          <mxGeometry x="390" y="180" width="70" height="40" as="geometry" />
        </mxCell>
        <mxCell id="PMdigUw3r0YSFIWqQ5Iu-26" value="→ or ↔" style="rounded=1;whiteSpace=wrap;html=1;shadow=1;" vertex="1" parent="1">
          <mxGeometry x="310" y="180" width="60" height="40" as="geometry" />
        </mxCell>
        <mxCell id="PMdigUw3r0YSFIWqQ5Iu-29" value="List of" style="endArrow=classic;html=1;rounded=1;exitX=0.5;exitY=1;exitDx=0;exitDy=0;" edge="1" parent="1" source="PMdigUw3r0YSFIWqQ5Iu-24">
          <mxGeometry x="-0.3846" y="-5" width="50" height="50" relative="1" as="geometry">
            <mxPoint x="260" y="220" as="sourcePoint" />
            <mxPoint x="280" y="260" as="targetPoint" />
            <Array as="points">
              <mxPoint x="255" y="260" />
            </Array>
            <mxPoint as="offset" />
          </mxGeometry>
        </mxCell>
        <mxCell id="PMdigUw3r0YSFIWqQ5Iu-30" value="" style="endArrow=classic;html=1;rounded=1;exitX=0;exitY=0.5;exitDx=0;exitDy=0;entryX=0.5;entryY=0;entryDx=0;entryDy=0;" edge="1" parent="1" source="PMdigUw3r0YSFIWqQ5Iu-1" target="PMdigUw3r0YSFIWqQ5Iu-24">
          <mxGeometry width="50" height="50" relative="1" as="geometry">
            <mxPoint x="320" y="290" as="sourcePoint" />
            <mxPoint x="260" y="180" as="targetPoint" />
            <Array as="points">
              <mxPoint x="255" y="140" />
            </Array>
          </mxGeometry>
        </mxCell>
        <mxCell id="PMdigUw3r0YSFIWqQ5Iu-31" value="" style="endArrow=classic;html=1;rounded=1;exitX=0.5;exitY=1;exitDx=0;exitDy=0;" edge="1" parent="1" source="PMdigUw3r0YSFIWqQ5Iu-1" target="PMdigUw3r0YSFIWqQ5Iu-26">
          <mxGeometry width="50" height="50" relative="1" as="geometry">
            <mxPoint x="320" y="290" as="sourcePoint" />
            <mxPoint x="370" y="240" as="targetPoint" />
          </mxGeometry>
        </mxCell>
        <mxCell id="PMdigUw3r0YSFIWqQ5Iu-32" value="" style="endArrow=classic;html=1;rounded=1;exitX=1;exitY=0.5;exitDx=0;exitDy=0;entryX=0.5;entryY=0;entryDx=0;entryDy=0;" edge="1" parent="1" source="PMdigUw3r0YSFIWqQ5Iu-1" target="PMdigUw3r0YSFIWqQ5Iu-25">
          <mxGeometry width="50" height="50" relative="1" as="geometry">
            <mxPoint x="320" y="320" as="sourcePoint" />
            <mxPoint x="370" y="270" as="targetPoint" />
            <Array as="points">
              <mxPoint x="425" y="140" />
            </Array>
          </mxGeometry>
        </mxCell>
        <mxCell id="PMdigUw3r0YSFIWqQ5Iu-33" value="List of" style="endArrow=classic;html=1;rounded=1;exitX=0.5;exitY=1;exitDx=0;exitDy=0;entryX=1;entryY=0.5;entryDx=0;entryDy=0;" edge="1" parent="1" source="PMdigUw3r0YSFIWqQ5Iu-25" target="PMdigUw3r0YSFIWqQ5Iu-2">
          <mxGeometry x="-0.3846" y="5" width="50" height="50" relative="1" as="geometry">
            <mxPoint x="320" y="320" as="sourcePoint" />
            <mxPoint x="370" y="270" as="targetPoint" />
            <Array as="points">
              <mxPoint x="425" y="260" />
            </Array>
            <mxPoint as="offset" />
          </mxGeometry>
        </mxCell>
      </root>
    </mxGraphModel>
  </diagram>
</mxfile>
